<?xml version="1.0" standalone="no"?>
<!DOCTYPE svg PUBLIC "-//W3C//DTD SVG 20010904//EN"
 "http://www.w3.org/TR/2001/REC-SVG-20010904/DTD/svg10.dtd">
<svg version="1.0" xmlns="http://www.w3.org/2000/svg"
 width="211.000000pt" height="211.000000pt" viewBox="0 0 211.000000 211.000000"
 preserveAspectRatio="xMidYMid meet">
<metadata>
Created by potrace 1.14, written by Peter Selinger 2001-2017
</metadata>
<g transform="translate(0.000000,211.000000) scale(0.100000,-0.100000)"
fill="#000000" stroke="none">
<path d="M1420 1651 c-82 -27 -153 -58 -195 -84 -70 -43 -117 -78 -168 -125
-64 -59 -91 -72 -133 -67 -16 3 -90 7 -164 10 -74 3 -164 8 -200 10 -74 5
-306 16 -332 16 -11 0 -15 6 -12 17 5 15 4 15 -5 1 -28 -43 -63 -199 -68 -306
-13 -259 73 -493 251 -681 167 -176 376 -269 627 -279 259 -11 478 70 661 245
225 215 328 524 274 824 l-17 94 -52 2 c-29 0 -101 3 -162 6 -60 3 -130 5
-154 5 -37 1 -42 3 -36 19 17 42 46 222 43 267 -3 49 -3 50 -38 52 -19 2 -73
-10 -120 -26z m125 -48 c-10 -99 -27 -151 -60 -183 -21 -20 -37 -28 -48 -24
-9 3 -14 10 -11 15 3 5 1 8 -4 7 -11 -4 -72 48 -72 61 0 5 30 40 68 79 56 58
79 74 129 91 2 1 1 -20 -2 -46z m-190 -175 c19 -13 35 -27 35 -32 0 -6 -12
-24 -27 -40 l-28 -31 31 28 c59 53 74 25 19 -37 -23 -26 -35 -34 -35 -23 0 9
-19 37 -43 62 l-43 44 25 26 c14 14 27 25 28 25 2 0 19 -10 38 -22z m-55 -90
c30 -33 26 -80 -11 -123 -25 -29 -38 -35 -69 -35 -30 0 -43 6 -59 26 -30 39
-26 58 22 109 50 51 84 58 117 23z m-175 -130 c8 -13 33 -32 55 -43 l40 -20
-126 -133 c-69 -72 -130 -132 -135 -132 -5 0 14 23 41 50 53 53 63 86 34 115
-33 32 -58 13 -165 -128 -17 -22 -49 -18 -49 5 0 8 61 76 135 153 74 77 134
143 135 148 0 14 19 6 35 -15z m-98 -179 c8 -8 3 -23 -20 -55 -17 -24 -35 -44
-39 -44 -17 0 -107 -92 -102 -104 2 -6 -7 -22 -20 -35 -19 -18 -23 -28 -16
-41 5 -10 6 -21 2 -26 -4 -5 -4 -7 0 -4 3 3 7 10 8 15 2 15 42 55 54 55 6 0 2
-7 -8 -15 -27 -20 -33 -60 -9 -51 37 13 -55 -57 -117 -89 -67 -34 -162 -123
-117 -109 66 20 168 69 212 102 28 20 57 37 65 37 8 -1 23 6 33 14 16 13 17
13 11 -2 -3 -9 -10 -17 -15 -17 -4 0 -6 -7 -2 -16 3 -8 12 -13 20 -10 20 8 2
-22 -58 -94 -27 -33 -48 -60 -46 -60 17 0 93 33 123 54 20 13 43 22 51 19 8
-3 29 7 46 23 18 16 12 8 -12 -18 -59 -63 -130 -100 -195 -102 -47 -1 -51 1
-54 23 -3 17 9 37 46 75 59 61 77 91 60 102 -6 4 -8 3 -4 -4 7 -11 -58 -68
-115 -100 -56 -31 -177 -72 -213 -72 -49 0 -60 19 -52 87 16 131 59 255 110
312 l21 25 -28 -21 c-15 -12 -48 -47 -74 -78 -37 -45 -51 -55 -72 -53 -25 3
-26 5 -25 69 2 67 27 133 71 188 l19 23 -1 -29 c0 -15 -8 -42 -17 -58 -21 -40
-52 -145 -44 -153 4 -3 14 5 23 19 9 13 38 46 64 72 l48 49 28 -26 c26 -24 28
-25 47 -8 11 9 6 0 -12 -21 -30 -36 -82 -127 -82 -144 0 -4 27 20 59 55 50 53
60 60 66 45 5 -10 7 -22 6 -26 -1 -5 4 -5 10 -1 6 3 15 1 19 -5 5 -8 31 18 76
76 124 159 145 178 171 152z m-77 -122 c0 -2 -19 -21 -42 -42 l-43 -40 40 43
c36 39 45 47 45 39z m-170 -11 c0 -2 -8 -10 -17 -17 -16 -13 -17 -12 -4 4 13
16 21 21 21 13z m16 -41 c-11 -8 -16 -15 -12 -15 4 0 4 -5 1 -10 -4 -6 -11 -8
-16 -4 -12 7 18 44 35 44 6 0 2 -7 -8 -15z"/>
<path d="M1135 1118 l-40 -43 43 40 c23 21 42 40 42 42 0 8 -9 0 -45 -39z"/>
<path d="M629 593 c-13 -16 -12 -17 4 -4 16 13 21 21 13 21 -2 0 -10 -8 -17
-17z"/>
</g>
</svg>
